<?xml version="1.0" encoding="UTF-8"?>
<svg version="1.1" viewBox="0 0 16 16" xmlns="http://www.w3.org/2000/svg">
	<g transform="matrix(.038462 0 0 -.038462 -.61538 15.385)" stroke-width="26">
		<path d="m432 192c-1.333-14.667-9.333-22.667-24-24h-160v-160c-1.333-14.667-9.333-22.667-24-24-14.667 1.333-22.667 9.333-24 24v160h-160c-14.667 1.333-22.667 9.333-24 24 1.333 14.667 9.333 22.667 24 24h160v160c1.333 14.667 9.333 22.667 24 24 14.667-1.333 22.667-9.333 24-24v-160h160c14.667-1.333 22.667-9.333 24-24z" fill="currentColor" stroke-width="676" />
	</g>
</svg>
