<?xml version="1.0" encoding="UTF-8"?>
<svg version="1.1" viewBox="0 0 16 16" xmlns="http://www.w3.org/2000/svg">
	<g transform="matrix(.03125 0 0 -.03125 3.019e-5 14)" stroke-width="32">
		<path d="m352 288h-35.999l-6 16c-4.667 10-12.334 15.333-23.001 16h-62c-11.333-0.66699-19-6-23-16l-6-16h-36c-9.333 0-17-3-23-9s-9-13.667-9-23v-128c0-9.333 3-17 9-23s13.667-9 23-9h192c9.333 0 17 3 23 9s9 13.667 9 23v128c0 9.333-3 17-9 23s-13.667 9-23 9zm-95.999-144c-13.333 0.66699-24.666 5.334-33.999 14.001-8.667 9.333-13.334 20.666-14.001 33.999 0.66699 13.333 5.334 24.666 14.001 33.999 9.333 8.667 20.666 13.334 33.999 14.001 13.333-0.66699 24.666-5.334 33.999-14.001 8.667-9.333 13.334-20.666 14.001-33.999-0.66699-13.333-5.334-24.666-14.001-33.999-9.333-8.667-20.666-13.334-33.999-14.001zm0 304c-48-0.66699-91-12.334-129-35.001-38.667-22.667-69.334-53.334-92.001-92.001-22.667-38-34.334-81-35.001-129 0.66699-48 12.334-91 35.001-129 22.667-38.667 53.334-69.334 92.001-92.001 38-22.667 81-34.334 129-35.001 48 0.66699 91 12.334 129 35.001 38.667 22.667 69.334 53.334 92.001 92.001 22.667 38 34.334 81 35.001 129-0.66699 48-12.334 91-35.001 129-22.667 38.667-53.334 69.334-92.001 92.001-38 22.667-81 34.334-129 35.001zm0-464c-58.667 1.333-107.67 21.666-147 60.999s-59.666 88.333-60.999 147c1.333 58.667 21.666 107.67 60.999 147s88.333 59.666 147 60.999c58.667-1.333 107.67-21.666 147-60.999s59.666-88.333 60.999-147c-1.333-58.667-21.666-107.67-60.999-147s-88.333-59.666-147-60.999z" fill="currentColor" stroke-width="1024" />
	</g>
</svg>
