<?xml version="1.0" encoding="UTF-8"?>
<svg version="1.1" viewBox="0 0 16 16" xmlns="http://www.w3.org/2000/svg">
	<g transform="matrix(.035754 0 0 -.035754 -4.46e-5 14.874)" stroke-width="27.969">
		<path d="m224 226 183 183c11.333 9.333 22.333 9.333 33 0 10-11.333 10-22.666 0-33.999l-182-183 182-183c10-11.333 10-22.333 0-33-10.667-10-21.667-10-33 0l-183 182-183-182c-11.333-10-22.666-10-33.999 0-9.333 10.667-9.333 21.667 0 33l183 183-183 183c-9.333 11.333-9.333 22.666 0 33.999 11.333 9.333 22.666 9.333 33.999 0z" fill="currentColor" stroke-width="782.25" />
	</g>
</svg>
