<?xml version="1.0" encoding="UTF-8"?>
<svg version="1.1" viewBox="0 0 16 16" xmlns="http://www.w3.org/2000/svg">
	<g transform="matrix(.031234 0 0 -.031234 .010386 14.001)" stroke-width="32.017">
		<path d="m502 444c-8.667 5.333-17.332 5.666-25.999 0.99902l-464-264c-8-5.333-12-12.666-12-21.999 0.66699-10 5.667-17 15-21l153-64v-114c0-9.333 4.333-16.333 13-21 3.333-2 6.666-3 9.999-3 4.667 0 9 1.333 13 4l111 71 99-41c2.667-1.333 5.667-2 9-2 4 0 8 1 12 3 6.667 4 10.667 9.667 12 17l64 432c2 10-1 18-9 24zm-133-115-187-209-104 43zm-154-325v49l47-19zm190 22-177 74 225 250z" fill="currentColor" stroke-width="1025.1" />
	</g>
</svg>
