<?xml version="1.0" encoding="UTF-8"?>
<svg version="1.1" viewBox="0 0 16 16" xmlns="http://www.w3.org/2000/svg">
	<path d="m8 3.5762c-0.8789 0.016284-1.6185 0.31641-2.2207 0.90234-0.58593 0.60222-0.88801 1.3438-0.9043 2.2227v0.39062c0.016284 0.8789 0.31836 1.6185 0.9043 2.2207 0.60222 0.58593 1.3418 0.88801 2.2207 0.9043 0.8789-0.016284 1.6204-0.31836 2.2227-0.9043 0.58594-0.60222 0.88606-1.3418 0.90234-2.2207v-0.39062c-0.016284-0.8789-0.31641-1.6204-0.90234-2.2227-0.60222-0.58593-1.3438-0.88606-2.2227-0.90234zm0.53711 1.7324c0.29297 0.39062 0.69988 0.59504 1.2207 0.61133h0.025391c0.11394 0.24414 0.16992 0.50457 0.16992 0.78125v0.39062c-0.016284 0.55339-0.20247 1.0163-0.56055 1.3906-0.37434 0.35808-0.83919 0.54622-1.3926 0.5625-0.55339-0.016284-1.0163-0.20442-1.3906-0.5625-0.35808-0.37434-0.54622-0.83723-0.5625-1.3906v-0.39062c0-0.1302 0.016284-0.26043 0.048828-0.39062h0.73242c0.76496-0.032544 1.3346-0.36719 1.709-1.002zm-1.8535 6.0488c-0.10868 0-0.21849 0.005502-0.32812 0.013672h-0.0019532c-0.099895 0.0074-0.19879 0.018943-0.29883 0.033203-0.04729 0.0064-0.093998 0.013794-0.14062 0.021484-0.064225 0.01123-0.1294 0.02303-0.19336 0.03711-0.90198 0.18742-1.6621 0.61742-2.1367 1.1914l-0.0019532 0.001953c-0.69143 0.7402-1.1313 1.8067-1.0645 3.2246l0.0058594 0.11914h1.1133c-0.033753-1.0896 0.31011-1.9148 0.84766-2.4902v-0.001954c0.37779-0.45684 0.98328-0.79809 1.7012-0.94726 0.050906-0.01121 0.10318-0.020397 0.1543-0.029297 0.037111-0.00613 0.073689-0.012478 0.11133-0.017578 0.079623-0.01134 0.15877-0.021444 0.23828-0.027344h0.0019531c0.087258-0.00648 0.17522-0.009765 0.26172-0.009766h0.037109 2.0215 0.035156c0.085992 0 0.17302 0.003366 0.25977 0.009766 0.00154 1.11e-4 0.0043294-1.14e-4 0.0058594 0h0.0019531c0.078621 0.00596 0.1576 0.016084 0.23633 0.027344 0.036601 0.00497 0.073272 0.011678 0.10938 0.017578 0.051118 0.00894 0.10339 0.018097 0.1543 0.029297 0.71034 0.14738 1.3087 0.48219 1.6875 0.93164 0.00454 0.004767 0.009172 0.010827 0.013672 0.015624 0.53864 0.57554 0.88152 1.4013 0.84766 2.4922h1.1133l0.00586-0.11914c0.06691-1.4195-0.37357-2.4863-1.0664-3.2266-0.0057-6e-3 -0.009895-0.013531-0.015625-0.019531-0.47588-0.56471-1.2286-0.98671-2.1211-1.1719-0.06396-0.01408-0.12914-0.02588-0.19336-0.03711-0.04536-0.0075-0.090733-0.015244-0.13672-0.021484-0.098916-0.01415-0.19809-0.025713-0.29688-0.033203-0.00129-9.8e-5 -0.0026163 9.7e-5 -0.0039063 0-0.00192-1.43e-4 -0.0039294 1.4e-4 -0.0058594 0-0.10898-8e-3 -0.21813-0.013672-0.32617-0.013672h-0.044922-2.541-0.046875z" stroke-width="1.0174" />
</svg>
