<?xml version="1.0" encoding="UTF-8"?>
<svg version="1.1" viewBox="0 0 16 16" xmlns="http://www.w3.org/2000/svg">
	<g transform="matrix(.03125 0 0 -.03125 .0054712 14)" stroke-width="32">
		<path d="m160 192c0.66699 27.333 10 50 28 68s40.667 27.333 68 28c27.333-0.66699 50-10 68-28s27.333-40.667 28-68c-0.66699-27.333-10-50-28-68s-40.667-27.333-68-28c-27.333 0.66699-50 10-68 28s-27.333 40.667-28 68zm96 48c-13.333-0.66699-24.666-5.334-33.999-14.001-8.667-9.333-13.334-20.666-14.001-33.999 0.66699-13.333 5.334-24.666 14.001-33.999 9.333-8.667 20.666-13.334 33.999-14.001 13.333 0.66699 24.666 5.334 33.999 14.001 8.667 9.333 13.334 20.666 14.001 33.999-0.66699 13.333-5.334 24.666-14.001 33.999-9.333 8.667-20.666 13.334-33.999 14.001zm37 208c11.333 0 21.333-3.333 30-10 8.667-6.667 14.334-15.667 17.001-27l8-32c8-4 16-8.667 24-14l32 9c10.667 3.333 21 3 31-1s18-11 24-21l37-64c5.333-10 7.333-20.333 6-31s-6-20-14-28l-24-22v-29l24-23c8-8 12.667-17.333 14-28s-0.66699-21-6-31l-37-64c-6-10-14-17-24-21s-20.333-4.333-31-1l-32 9-24-14-8-32c-2.667-11.333-8.334-20.333-17.001-27s-18.667-10-30-10h-74c-11.333 0-21.333 3.333-30 10s-14.334 15.667-17.001 27l-8 32c-8 4-16 8.667-24 14l-33-9c-10.667-3.333-21-3-31 1-9.333 4-17 11-23 21l-37 64c-6 10-8 20.333-6 31 1.333 10.667 6 20 14 28l24 23v29l-24 22c-8 8-12.667 17.333-14 28-2 10.667 0 21 6 31l37 64c6 10 13.667 17 23 21 10 4 20.333 4.333 31 1l33-9c8 5.333 16 10 24 14l8 32c2.667 11.333 8.334 20.333 17.001 27s18.667 10 30 10zm-87-104-12-4c-12.667-5.333-24.334-12.333-35.001-21l-10-7-55 16-37-64 42-40-2-12c-0.66699-6.667-1-13.334-1-20.001s0.33301-13.334 1-20.001l2-12-42-40 37-64 55 16 10-7c10.667-8.667 22.334-15.667 35.001-21l12-4 13-56h74l14 56 11 4c12.667 5.333 24.334 12.333 35.001 21l10 7 55-16 37 64-42 40 2 12c0.66699 6.667 1 13.334 1 20.001s-0.33301 13.334-1 20.001l-2 12 42 40-37 64-55-16-10 7c-10.667 8.667-22.334 15.667-35.001 21l-11 4-14 56h-74z" fill="currentColor" stroke-width="1024" />
	</g>
</svg>
