<?xml version="1.0" encoding="UTF-8"?>
<svg version="1.1" viewBox="0 0 16 16" xmlns="http://www.w3.org/2000/svg">
	<g transform="matrix(.03125 0 0 .03125 9.269e-5 1.9999)" stroke-width="32">
		<path d="m178 254c-11.333-10-22.667-10.333-34-1-10.667 10.667-11.334 22-2.001 34 11.333 12 26.333 23.333 45 34 19.333 10 42.333 15.333 69 16 26.667-0.66699 49.667-6 69-16 18.667-10.667 33.667-22 45-34 8.667-12 8-23.333-2-34-11.333-9.333-22.666-9-33.999 1-7.333 8.667-17.666 16.667-30.999 24-12.667 6.667-28.334 10.334-47.001 11.001-18.667-0.66699-34.334-4.334-47.001-11.001-13.333-7.333-23.666-15.333-30.999-24zm-2.001-142c-8.667 0-16 3-22 9s-9.333 13.667-10 23c0.66699 9.333 4 17 10 23s13.333 9 22 9c9.333 0 17-3 23-9s9-13.667 9-23-3-17-9-23-13.667-9-23-9zm160 64c9.333 0 17-3 23-9s9-13.667 9-23-3-17-9-23-13.667-9-23-9c-8.667 0-16 3-22 9s-9.333 13.667-10 23c0.66699 9.333 4 17 10 23s13.333 9 22 9zm-80-240c-48 0.66699-91 12.334-129 35.001-38.667 22.667-69.334 53.334-92.001 92.001-22.667 38-34.334 81-35.001 129 0.66699 48 12.334 91 35.001 129 22.667 38.667 53.334 69.334 92.001 92.001 38 22.667 81 34.334 129 35.001 48-0.66699 91-12.334 129-35.001 38.667-22.667 69.334-53.334 92.001-92.001 22.667-38 34.334-81 35.001-129-0.66699-48-12.334-91-35.001-129-22.667-38.667-53.334-69.334-92.001-92.001-38-22.667-81-34.334-129-35.001zm208 256c-1.333 58.667-21.666 107.67-60.999 147s-88.333 59.666-147 60.999c-58.667-1.333-107.67-21.666-147-60.999s-59.666-88.333-60.999-147c1.333-58.667 21.666-107.67 60.999-147s88.333-59.666 147-60.999c58.667 1.333 107.67 21.666 147 60.999s59.666 88.333 60.999 147z" fill="currentColor" stroke-width="1024" />
	</g>
</svg>
